<?xml version="1.0" encoding="UTF-8" standalone="no"?>
<!DOCTYPE svg PUBLIC "-//W3C//DTD SVG 1.1//EN"
 "http://www.w3.org/Graphics/SVG/1.1/DTD/svg11.dtd">
<!-- Generated by graphviz version 14.0.0 (20250921.2048)
 -->
<!-- Title: FSA Pages: 1 -->
<svg width="873pt" height="185pt"
 viewBox="0.00 0.00 873.00 185.00" xmlns="http://www.w3.org/2000/svg" xmlns:xlink="http://www.w3.org/1999/xlink">
<g id="graph0" class="graph" transform="scale(1 1) rotate(0) translate(4 181.15)">
<title>FSA</title>
<polygon fill="white" stroke="none" points="-4,4 -4,-181.15 869.25,-181.15 869.25,4 -4,4"/>
<text xml:space="preserve" text-anchor="middle" x="432.62" y="-7.2" font-family="Times,serif" font-size="14.00">a(x|y)*c</text>
<!-- start_state -->
<!-- s0 -->
<g id="node2" class="node">
<title>s0</title>
<ellipse fill="none" stroke="black" cx="59.71" cy="-96.61" rx="19.11" ry="19.11"/>
<text xml:space="preserve" text-anchor="middle" x="59.71" y="-91.56" font-family="Times,serif" font-size="14.00">s0</text>
</g>
<!-- start_state&#45;&gt;s0 -->
<g id="edge1" class="edge">
<title>start_state&#45;&gt;s0</title>
<path fill="none" stroke="black" d="M3.77,-96.61C6.98,-96.61 17.67,-96.61 28.77,-96.61"/>
<polygon fill="black" stroke="black" points="28.69,-100.11 38.69,-96.61 28.69,-93.11 28.69,-100.11"/>
</g>
<!-- s1 -->
<g id="node3" class="node">
<title>s1</title>
<ellipse fill="none" stroke="black" cx="219.42" cy="-96.61" rx="19.11" ry="19.11"/>
<text xml:space="preserve" text-anchor="middle" x="219.42" y="-91.56" font-family="Times,serif" font-size="14.00">s1</text>
</g>
<!-- s0&#45;&gt;s1 -->
<g id="edge2" class="edge">
<title>s0&#45;&gt;s1</title>
<path fill="none" stroke="black" d="M79.11,-96.61C106.06,-96.61 156.54,-96.61 188.77,-96.61"/>
<polygon fill="black" stroke="black" points="188.63,-100.11 198.63,-96.61 188.63,-93.11 188.63,-100.11"/>
<text xml:space="preserve" text-anchor="middle" x="139.57" y="-99.81" font-family="Times,serif" font-size="14.00">97 (&#39;a&#39;) &#45; 97 (&#39;a&#39;)</text>
</g>
<!-- s2 -->
<g id="node4" class="node">
<title>s2</title>
<ellipse fill="none" stroke="black" cx="842.14" cy="-133.61" rx="19.11" ry="19.11"/>
<ellipse fill="none" stroke="black" cx="842.14" cy="-133.61" rx="23.11" ry="23.11"/>
<text xml:space="preserve" text-anchor="middle" x="842.14" y="-128.56" font-family="Times,serif" font-size="14.00">s2</text>
</g>
<!-- s1&#45;&gt;s2 -->
<g id="edge3" class="edge">
<title>s1&#45;&gt;s2</title>
<path fill="none" stroke="black" d="M235.9,-106.46C242.17,-110.22 249.55,-114.38 256.53,-117.61 307.23,-141.09 319.96,-150.14 375.03,-159.61 409.02,-165.45 599.06,-157.32 697.53,-153.61 743.55,-151.87 755.92,-157.9 801.03,-148.61 804,-148 807.04,-147.2 810.06,-146.29"/>
<polygon fill="black" stroke="black" points="810.93,-149.69 819.25,-143.14 808.66,-143.07 810.93,-149.69"/>
<text xml:space="preserve" text-anchor="middle" x="543.78" y="-163.85" font-family="Times,serif" font-size="14.00">99 (&#39;c&#39;) &#45; 99 (&#39;c&#39;)</text>
</g>
<!-- s3 -->
<g id="node5" class="node">
<title>s3</title>
<ellipse fill="none" stroke="black" cx="425.28" cy="-96.61" rx="19.11" ry="19.11"/>
<text xml:space="preserve" text-anchor="middle" x="425.28" y="-91.56" font-family="Times,serif" font-size="14.00">s3</text>
</g>
<!-- s1&#45;&gt;s3 -->
<g id="edge4" class="edge">
<title>s1&#45;&gt;s3</title>
<path fill="none" stroke="black" d="M238.87,-96.61C274.18,-96.61 351.61,-96.61 394.39,-96.61"/>
<polygon fill="black" stroke="black" points="394.21,-100.11 404.21,-96.61 394.21,-93.11 394.21,-100.11"/>
<text xml:space="preserve" text-anchor="middle" x="306.78" y="-99.81" font-family="Times,serif" font-size="14.00">120 (&#39;x&#39;) &#45; 120 (&#39;x&#39;)</text>
</g>
<!-- s4 -->
<g id="node6" class="node">
<title>s4</title>
<ellipse fill="none" stroke="black" cx="654.78" cy="-43.61" rx="19.11" ry="19.11"/>
<text xml:space="preserve" text-anchor="middle" x="654.78" y="-38.56" font-family="Times,serif" font-size="14.00">s4</text>
</g>
<!-- s1&#45;&gt;s4 -->
<g id="edge5" class="edge">
<title>s1&#45;&gt;s4</title>
<path fill="none" stroke="black" d="M237.79,-90.47C266.13,-80.72 324.27,-61.79 375.03,-52.11 470.77,-33.84 496.59,-38.16 594.03,-40.61 603.74,-40.85 614.33,-41.32 623.86,-41.81"/>
<polygon fill="black" stroke="black" points="623.53,-45.3 633.71,-42.35 623.91,-38.31 623.53,-45.3"/>
<text xml:space="preserve" text-anchor="middle" x="425.28" y="-55.31" font-family="Times,serif" font-size="14.00">121 (&#39;y&#39;) &#45; 121 (&#39;y&#39;)</text>
</g>
<!-- s3&#45;&gt;s2 -->
<g id="edge6" class="edge">
<title>s3&#45;&gt;s2</title>
<path fill="none" stroke="black" d="M443.74,-102.7C457.17,-107.11 476.29,-112.76 493.53,-115.61 607.28,-134.38 744.54,-135.17 807.1,-134.35"/>
<polygon fill="black" stroke="black" points="807.13,-137.85 817.07,-134.2 807.02,-130.85 807.13,-137.85"/>
<text xml:space="preserve" text-anchor="middle" x="654.78" y="-136.53" font-family="Times,serif" font-size="14.00">99 (&#39;c&#39;) &#45; 99 (&#39;c&#39;)</text>
</g>
<!-- s3&#45;&gt;s3 -->
<g id="edge7" class="edge">
<title>s3&#45;&gt;s3</title>
<path fill="none" stroke="black" d="M408.97,-107.24C397.39,-119.51 402.83,-133.72 425.28,-133.72 441.77,-133.72 449.08,-126.05 447.21,-117.13"/>
<polygon fill="black" stroke="black" points="450.33,-115.52 442.34,-108.56 444.24,-118.98 450.33,-115.52"/>
<text xml:space="preserve" text-anchor="middle" x="425.28" y="-136.92" font-family="Times,serif" font-size="14.00">120 (&#39;x&#39;) &#45; 120 (&#39;x&#39;)</text>
</g>
<!-- s3&#45;&gt;s4 -->
<g id="edge8" class="edge">
<title>s3&#45;&gt;s4</title>
<path fill="none" stroke="black" d="M444.66,-96.91C476.08,-96.91 541.78,-94.64 594.03,-77.61 606.29,-73.61 618.83,-66.94 629.25,-60.55"/>
<polygon fill="black" stroke="black" points="631.07,-63.55 637.59,-55.2 627.28,-57.66 631.07,-63.55"/>
<text xml:space="preserve" text-anchor="middle" x="543.78" y="-98.23" font-family="Times,serif" font-size="14.00">121 (&#39;y&#39;) &#45; 121 (&#39;y&#39;)</text>
</g>
<!-- s4&#45;&gt;s2 -->
<g id="edge9" class="edge">
<title>s4&#45;&gt;s2</title>
<path fill="none" stroke="black" d="M673.46,-49.17C701.51,-58.37 757.5,-78.22 801.03,-103.11 805.72,-105.79 810.48,-108.95 815,-112.21"/>
<polygon fill="black" stroke="black" points="812.56,-114.75 822.65,-117.98 816.78,-109.16 812.56,-114.75"/>
<text xml:space="preserve" text-anchor="middle" x="758.28" y="-106.31" font-family="Times,serif" font-size="14.00">99 (&#39;c&#39;) &#45; 99 (&#39;c&#39;)</text>
</g>
<!-- s4&#45;&gt;s3 -->
<g id="edge10" class="edge">
<title>s4&#45;&gt;s3</title>
<path fill="none" stroke="black" d="M635.49,-42.56C605.19,-41.38 543.02,-41.39 493.53,-57.11 478.31,-61.94 462.83,-70.71 450.57,-78.76"/>
<polygon fill="black" stroke="black" points="448.62,-75.85 442.35,-84.39 452.58,-81.62 448.62,-75.85"/>
<text xml:space="preserve" text-anchor="middle" x="543.78" y="-60.31" font-family="Times,serif" font-size="14.00">120 (&#39;x&#39;) &#45; 120 (&#39;x&#39;)</text>
</g>
<!-- s4&#45;&gt;s4 -->
<g id="edge11" class="edge">
<title>s4&#45;&gt;s4</title>
<path fill="none" stroke="black" d="M639.64,-55.39C630.73,-67.37 635.78,-80.72 654.78,-80.72 668.14,-80.72 674.6,-74.12 674.17,-66.04"/>
<polygon fill="black" stroke="black" points="677.44,-64.79 670.48,-56.79 670.93,-67.38 677.44,-64.79"/>
<text xml:space="preserve" text-anchor="middle" x="654.78" y="-83.92" font-family="Times,serif" font-size="14.00">121 (&#39;y&#39;) &#45; 121 (&#39;y&#39;)</text>
</g>
</g>
</svg>
