<?xml version="1.0" encoding="UTF-8" standalone="no"?>
<!DOCTYPE svg PUBLIC "-//W3C//DTD SVG 1.1//EN"
 "http://www.w3.org/Graphics/SVG/1.1/DTD/svg11.dtd">
<!-- Generated by graphviz version 14.0.0 (20250921.2048)
 -->
<!-- Title: FSA Pages: 1 -->
<svg width="435pt" height="155pt"
 viewBox="0.00 0.00 435.00 155.00" xmlns="http://www.w3.org/2000/svg" xmlns:xlink="http://www.w3.org/1999/xlink">
<g id="page0,1_graph0" class="graph" transform="scale(1 1) rotate(0) translate(4 150.72)">
<title>FSA</title>
<polygon fill="white" stroke="none" points="-4,4 -4,-150.72 431.25,-150.72 431.25,4 -4,4"/>
<text xml:space="preserve" text-anchor="middle" x="213.62" y="-7.2" font-family="Times,serif" font-size="14.00">Deterministic</text>
<!-- start_state -->
<!-- s0 -->
<g id="node2" class="node">
<title>s0</title>
<ellipse fill="none" stroke="black" cx="59.71" cy="-71.61" rx="19.11" ry="19.11"/>
<text xml:space="preserve" text-anchor="middle" x="59.71" y="-66.56" font-family="Times,serif" font-size="14.00">s0</text>
</g>
<!-- start_state&#45;&gt;s0 -->
<g id="edge1" class="edge">
<title>start_state&#45;&gt;s0</title>
<path fill="none" stroke="black" d="M3.77,-71.61C6.98,-71.61 17.67,-71.61 28.77,-71.61"/>
<polygon fill="black" stroke="black" points="28.69,-75.11 38.69,-71.61 28.69,-68.11 28.69,-75.11"/>
</g>
<!-- s1 -->
<g id="node3" class="node">
<title>s1</title>
<ellipse fill="none" stroke="black" cx="233.67" cy="-99.61" rx="19.11" ry="19.11"/>
<text xml:space="preserve" text-anchor="middle" x="233.67" y="-94.56" font-family="Times,serif" font-size="14.00">s1</text>
</g>
<!-- s0&#45;&gt;s1 -->
<g id="edge2" class="edge">
<title>s0&#45;&gt;s1</title>
<path fill="none" stroke="black" d="M78.79,-74.55C108.38,-79.37 167.45,-88.99 203.17,-94.8"/>
<polygon fill="black" stroke="black" points="202.39,-98.22 212.83,-96.38 203.52,-91.31 202.39,-98.22"/>
<text xml:space="preserve" text-anchor="middle" x="146.69" y="-96.76" font-family="Times,serif" font-size="14.00">97 (&#39;a&#39;) &#45; 102 (&#39;f&#39;)</text>
</g>
<!-- s2 -->
<g id="node4" class="node">
<title>s2</title>
<ellipse fill="none" stroke="black" cx="233.67" cy="-43.61" rx="19.11" ry="19.11"/>
<text xml:space="preserve" text-anchor="middle" x="233.67" y="-38.56" font-family="Times,serif" font-size="14.00">s2</text>
</g>
<!-- s0&#45;&gt;s2 -->
<g id="edge3" class="edge">
<title>s0&#45;&gt;s2</title>
<path fill="none" stroke="black" d="M77.28,-63.81C83.31,-61.28 90.25,-58.72 96.82,-57.11 132.71,-48.31 175.28,-45.22 203.08,-44.15"/>
<polygon fill="black" stroke="black" points="202.98,-47.65 212.86,-43.84 202.76,-40.66 202.98,-47.65"/>
<text xml:space="preserve" text-anchor="middle" x="146.69" y="-60.31" font-family="Times,serif" font-size="14.00">103 (&#39;g&#39;) &#45; 122 (&#39;z&#39;)</text>
</g>
<!-- s3 -->
<g id="node5" class="node">
<title>s3</title>
<ellipse fill="none" stroke="black" cx="404.14" cy="-51.61" rx="19.11" ry="19.11"/>
<ellipse fill="none" stroke="black" cx="404.14" cy="-51.61" rx="23.11" ry="23.11"/>
<text xml:space="preserve" text-anchor="middle" x="404.14" y="-46.56" font-family="Times,serif" font-size="14.00">s3</text>
</g>
<!-- s1&#45;&gt;s3 -->
<g id="edge4" class="edge">
<title>s1&#45;&gt;s3</title>
<path fill="none" stroke="black" d="M251.35,-91.76C257.38,-89.11 264.31,-86.27 270.78,-84.11 310.81,-70.74 322.06,-71.71 363.03,-61.61 365.46,-61.01 367.98,-60.38 370.51,-59.76"/>
<polygon fill="black" stroke="black" points="371.17,-63.2 380.03,-57.39 369.48,-56.41 371.17,-63.2"/>
<text xml:space="preserve" text-anchor="middle" x="316.91" y="-87.31" font-family="Times,serif" font-size="14.00">48 (&#39;0&#39;) &#45; 57 (&#39;9&#39;)</text>
</g>
<!-- s4 -->
<g id="node6" class="node">
<title>s4</title>
<ellipse fill="none" stroke="black" cx="404.14" cy="-123.61" rx="19.11" ry="19.11"/>
<ellipse fill="none" stroke="black" cx="404.14" cy="-123.61" rx="23.11" ry="23.11"/>
<text xml:space="preserve" text-anchor="middle" x="404.14" y="-118.56" font-family="Times,serif" font-size="14.00">s4</text>
</g>
<!-- s1&#45;&gt;s4 -->
<g id="edge5" class="edge">
<title>s1&#45;&gt;s4</title>
<path fill="none" stroke="black" d="M253.02,-102.22C280.99,-106.21 334.71,-113.86 369.72,-118.85"/>
<polygon fill="black" stroke="black" points="368.93,-122.27 379.32,-120.21 369.91,-115.34 368.93,-122.27"/>
<text xml:space="preserve" text-anchor="middle" x="316.91" y="-121.01" font-family="Times,serif" font-size="14.00">97 (&#39;a&#39;) &#45; 122 (&#39;z&#39;)</text>
</g>
<!-- s2&#45;&gt;s3 -->
<g id="edge6" class="edge">
<title>s2&#45;&gt;s3</title>
<path fill="none" stroke="black" d="M252.99,-42.97C277.94,-42.29 323.95,-41.73 363.03,-45.11 365.24,-45.3 367.52,-45.54 369.81,-45.82"/>
<polygon fill="black" stroke="black" points="369.25,-49.28 379.65,-47.22 370.24,-42.35 369.25,-49.28"/>
<text xml:space="preserve" text-anchor="middle" x="316.91" y="-48.31" font-family="Times,serif" font-size="14.00">48 (&#39;0&#39;) &#45; 57 (&#39;9&#39;)</text>
</g>
</g>
</svg>
