<?xml version="1.0" encoding="UTF-8" standalone="no"?>
<!DOCTYPE svg PUBLIC "-//W3C//DTD SVG 1.1//EN"
 "http://www.w3.org/Graphics/SVG/1.1/DTD/svg11.dtd">
<!-- Generated by graphviz version 14.0.0 (20250921.2048)
 -->
<!-- Title: FSA Pages: 1 -->
<svg width="593pt" height="127pt"
 viewBox="0.00 0.00 593.00 127.00" xmlns="http://www.w3.org/2000/svg" xmlns:xlink="http://www.w3.org/1999/xlink">
<g id="graph0" class="graph" transform="scale(1 1) rotate(0) translate(4 122.72)">
<title>FSA</title>
<polygon fill="white" stroke="none" points="-4,4 -4,-122.72 588.71,-122.72 588.71,4 -4,4"/>
<text xml:space="preserve" text-anchor="middle" x="292.36" y="-7.2" font-family="Times,serif" font-size="14.00">Non&#45;deterministic</text>
<!-- start_state -->
<!-- s0 -->
<g id="node2" class="node">
<title>s0</title>
<ellipse fill="none" stroke="black" cx="59.71" cy="-71.61" rx="19.11" ry="19.11"/>
<text xml:space="preserve" text-anchor="middle" x="59.71" y="-66.56" font-family="Times,serif" font-size="14.00">s0</text>
</g>
<!-- start_state&#45;&gt;s0 -->
<g id="edge1" class="edge">
<title>start_state&#45;&gt;s0</title>
<path fill="none" stroke="black" d="M3.77,-71.61C6.98,-71.61 17.67,-71.61 28.77,-71.61"/>
<polygon fill="black" stroke="black" points="28.69,-75.11 38.69,-71.61 28.69,-68.11 28.69,-75.11"/>
</g>
<!-- s1 -->
<g id="node3" class="node">
<title>s1</title>
<ellipse fill="none" stroke="black" cx="226.17" cy="-99.61" rx="19.11" ry="19.11"/>
<text xml:space="preserve" text-anchor="middle" x="226.17" y="-94.56" font-family="Times,serif" font-size="14.00">s1</text>
</g>
<!-- s0&#45;&gt;s1 -->
<g id="edge2" class="edge">
<title>s0&#45;&gt;s1</title>
<path fill="none" stroke="black" d="M78.94,-74.71C107.22,-79.53 161.92,-88.84 195.82,-94.61"/>
<polygon fill="black" stroke="black" points="194.92,-98.01 205.37,-96.24 196.1,-91.11 194.92,-98.01"/>
<text xml:space="preserve" text-anchor="middle" x="142.94" y="-96.04" font-family="Times,serif" font-size="14.00">ε</text>
</g>
<!-- s2 -->
<g id="node4" class="node">
<title>s2</title>
<ellipse fill="none" stroke="black" cx="226.17" cy="-43.61" rx="19.11" ry="19.11"/>
<text xml:space="preserve" text-anchor="middle" x="226.17" y="-38.56" font-family="Times,serif" font-size="14.00">s2</text>
</g>
<!-- s0&#45;&gt;s2 -->
<g id="edge3" class="edge">
<title>s0&#45;&gt;s2</title>
<path fill="none" stroke="black" d="M77.7,-64.27C83.65,-61.97 90.44,-59.64 96.82,-58.11 129.95,-50.17 168.97,-46.55 195.21,-44.91"/>
<polygon fill="black" stroke="black" points="195.35,-48.41 205.14,-44.36 194.96,-41.42 195.35,-48.41"/>
<text xml:space="preserve" text-anchor="middle" x="142.94" y="-61.31" font-family="Times,serif" font-size="14.00">97 (&#39;a&#39;) &#45; 122 (&#39;z&#39;)</text>
</g>
<!-- s4 -->
<g id="node6" class="node">
<title>s4</title>
<ellipse fill="none" stroke="black" cx="391.14" cy="-99.61" rx="19.11" ry="19.11"/>
<text xml:space="preserve" text-anchor="middle" x="391.14" y="-94.56" font-family="Times,serif" font-size="14.00">s4</text>
</g>
<!-- s1&#45;&gt;s4 -->
<g id="edge4" class="edge">
<title>s1&#45;&gt;s4</title>
<path fill="none" stroke="black" d="M245.55,-99.61C273.43,-99.61 326.69,-99.61 360.21,-99.61"/>
<polygon fill="black" stroke="black" points="360.06,-103.11 370.06,-99.61 360.06,-96.11 360.06,-103.11"/>
<text xml:space="preserve" text-anchor="middle" x="308.66" y="-102.81" font-family="Times,serif" font-size="14.00">97 (&#39;a&#39;) &#45; 102 (&#39;f&#39;)</text>
</g>
<!-- s3 -->
<g id="node5" class="node">
<title>s3</title>
<ellipse fill="none" stroke="black" cx="391.14" cy="-43.61" rx="19.11" ry="19.11"/>
<text xml:space="preserve" text-anchor="middle" x="391.14" y="-38.56" font-family="Times,serif" font-size="14.00">s3</text>
</g>
<!-- s2&#45;&gt;s3 -->
<g id="edge5" class="edge">
<title>s2&#45;&gt;s3</title>
<path fill="none" stroke="black" d="M245.55,-43.61C273.43,-43.61 326.69,-43.61 360.21,-43.61"/>
<polygon fill="black" stroke="black" points="360.06,-47.11 370.06,-43.61 360.06,-40.11 360.06,-47.11"/>
<text xml:space="preserve" text-anchor="middle" x="308.66" y="-46.81" font-family="Times,serif" font-size="14.00">48 (&#39;0&#39;) &#45; 57 (&#39;9&#39;)</text>
</g>
<!-- s5 -->
<g id="node7" class="node">
<title>s5</title>
<ellipse fill="none" stroke="black" cx="561.6" cy="-71.61" rx="19.11" ry="19.11"/>
<ellipse fill="none" stroke="black" cx="561.6" cy="-71.61" rx="23.11" ry="23.11"/>
<text xml:space="preserve" text-anchor="middle" x="561.6" y="-66.56" font-family="Times,serif" font-size="14.00">s5</text>
</g>
<!-- s3&#45;&gt;s5 -->
<g id="edge6" class="edge">
<title>s3&#45;&gt;s5</title>
<path fill="none" stroke="black" d="M410.65,-44.15C435.8,-45.21 482.06,-48.28 520.5,-57.11 523.27,-57.75 526.12,-58.52 528.96,-59.38"/>
<polygon fill="black" stroke="black" points="527.63,-62.62 538.22,-62.47 529.85,-55.98 527.63,-62.62"/>
<text xml:space="preserve" text-anchor="middle" x="474.37" y="-60.31" font-family="Times,serif" font-size="14.00">ε</text>
</g>
<!-- s4&#45;&gt;s5 -->
<g id="edge7" class="edge">
<title>s4&#45;&gt;s5</title>
<path fill="none" stroke="black" d="M410.49,-96.56C438.53,-91.9 492.47,-82.93 527.48,-77.11"/>
<polygon fill="black" stroke="black" points="527.77,-80.61 537.07,-75.52 526.63,-73.71 527.77,-80.61"/>
<text xml:space="preserve" text-anchor="middle" x="474.37" y="-96.76" font-family="Times,serif" font-size="14.00">97 (&#39;a&#39;) &#45; 122 (&#39;z&#39;)</text>
</g>
</g>
</svg>
